<svg style="position: absolute; width: 0; height: 0;" width="0" height="0" version="1.1" xmlns="http://www.w3.org/2000/svg" xmlns:xlink="http://www.w3.org/1999/xlink">
<defs>
<symbol id="icon-beach" viewBox="0 0 1024 1024">
	<title>beach</title>
	<path class="path1" d="M969.6 492.8c-3.2-12.8-6.4-25.6-12.8-38.4-35.2-76.8-118.4-112-179.2-166.4v-32c0-9.6-9.6-19.2-19.2-19.2s-19.2 9.6-19.2 19.2v32c-32 28.8-57.6 60.8-86.4 92.8-16 16-28.8 35.2-44.8 51.2-6.4 6.4-12.8 12.8-16 19.2-3.2-51.2-12.8-102.4-22.4-156.8-9.6-73.6-3.2-160 54.4-204.8 38.4-32 92.8-35.2 144-19.2 16 3.2 32 9.6 44.8 19.2 64 35.2 137.6 108.8 156.8 182.4 22.4 73.6 12.8 147.2 0 220.8zM432 454.4c-6.4-6.4-12.8-12.8-16-19.2-16-16-28.8-35.2-44.8-51.2-28.8-32-54.4-64-86.4-92.8v-32c0-9.6-9.6-19.2-19.2-19.2s-19.2 9.6-19.2 19.2v32c-60.8 54.4-140.8 89.6-179.2 166.4-6.4 12.8-9.6 22.4-12.8 35.2-9.6-73.6-22.4-147.2-3.2-220.8s92.8-147.2 156.8-182.4c12.8-6.4 28.8-12.8 44.8-19.2 48-16 102.4-9.6 144 19.2 57.6 44.8 67.2 131.2 54.4 204.8-6.4 57.6-16 108.8-19.2 160zM160 710.4c22.4 6.4 35.2-28.8 9.6-38.4-38.4-12.8-67.2-54.4-80-89.6-12.8-38.4-3.2-86.4 16-121.6 35.2-60.8 102.4-92.8 153.6-137.6 25.6 22.4 44.8 51.2 70.4 73.6 25.6 28.8 51.2 54.4 73.6 86.4 16 25.6 22.4 54.4 19.2 83.2-3.2 38.4-32 64-48 99.2-3.2 9.6 3.2 22.4 12.8 22.4 9.6 3.2 19.2-3.2 22.4-12.8 6.4-12.8 16-25.6 22.4-38.4 12.8 105.6 25.6 240-51.2 278.4-83.2 41.6-208 41.6-246.4-73.6-19.2-60.8-41.6-128-57.6-192 25.6 28.8 51.2 51.2 83.2 60.8zM608 675.2c3.2 9.6 12.8 16 22.4 12.8s16-12.8 12.8-22.4c-12.8-35.2-44.8-60.8-48-99.2-3.2-28.8 0-57.6 19.2-83.2 22.4-32 48-57.6 73.6-86.4 22.4-25.6 44.8-51.2 70.4-73.6 51.2 44.8 121.6 76.8 153.6 137.6 19.2 35.2 28.8 83.2 16 121.6s-41.6 80-80 89.6c-22.4 6.4-12.8 44.8 9.6 38.4 32-9.6 57.6-32 76.8-57.6-16 67.2-35.2 131.2-57.6 192-38.4 115.2-163.2 115.2-246.4 73.6-76.8-41.6-64-172.8-51.2-278.4 12.8 9.6 22.4 22.4 28.8 35.2z"></path>
</symbol>
<symbol id="icon-building" viewBox="0 0 1024 1024">
	<title>building</title>
	<path class="path1" d="M668.8 486.4v-313.6l-156.8-156.8-156.8 156.8v105.6h-313.6v732.8h944v-524.8h-316.8zM249.6 905.6h-105.6v-105.6h105.6v105.6zM249.6 694.4h-105.6v-105.6h105.6v105.6zM249.6 486.4h-105.6v-105.6h105.6v105.6zM563.2 905.6h-105.6v-105.6h105.6v105.6zM563.2 694.4h-105.6v-105.6h105.6v105.6zM563.2 486.4h-105.6v-105.6h105.6v105.6zM563.2 275.2h-105.6v-105.6h105.6v105.6zM880 905.6h-105.6v-105.6h105.6v105.6zM880 694.4h-105.6v-105.6h105.6v105.6z"></path>
</symbol>
<symbol id="icon-tower" viewBox="0 0 1024 1024">
	<title>tower</title>
	<path class="path1" d="M672 806.4v0c0 0 0-3.2 0-3.2v-54.4c0-3.2 0-3.2-3.2-3.2h-28.8l-51.2-182.4h6.4c6.4 0 9.6-3.2 9.6-9.6v-6.4c0-3.2 0-6.4-3.2-6.4 0 0-3.2-3.2-6.4-3.2h-6.4c-32-140.8-41.6-278.4-44.8-316.8l28.8-16v-35.2l-38.4-25.6-12.8-115.2c0-3.2-3.2-6.4-9.6-6.4s-9.6 3.2-9.6 6.4l-12.8 112-38.4 25.6v35.2l28.8 19.2c0 44.8-12.8 172.8-44.8 313.6h-6.4c-3.2 0-3.2 0-6.4 3.2s-3.2 3.2-3.2 6.4v6.4c0 6.4 3.2 9.6 9.6 9.6h6.4l-51.2 182.4h-28.8c-3.2 0-3.2 0-3.2 3.2v54.4c0 0 0 3.2 0 3.2v0l-108.8 192h156.8c0 0-6.4-131.2 96-131.2s121.6 131.2 121.6 131.2h156.8l-102.4-188.8zM464 745.6l32-128h32l32 128h-96z"></path>
</symbol>
<symbol id="icon-education" viewBox="0 0 1024 1024">
	<title>education</title>
	<path class="path1" d="M905.6 806.4v-460.8h-121.6v460.8h-99.2v-460.8h-121.6v460.8h-96v-460.8h-121.6v460.8h-99.2v-460.8h-121.6v460.8l-86.4 134.4h950.4z"></path>
	<path class="path2" d="M64 294.4h902.4l-451.2-256z"></path>
</symbol>
<symbol id="icon-seasons" viewBox="0 0 1024 1024">
	<title>seasons</title>
	<path class="path1" d="M956.8 547.2h-86.4c-16 0-28.8-12.8-28.8-28.8s12.8-28.8 28.8-28.8h86.4c16 0 28.8 12.8 28.8 28.8s-12.8 28.8-28.8 28.8zM793.6 275.2c-6.4 6.4-12.8 9.6-19.2 9.6s-16-3.2-19.2-9.6c-9.6-9.6-9.6-28.8 0-41.6l60.8-60.8c9.6-9.6 28.8-9.6 41.6 0 9.6 9.6 9.6 28.8 0 41.6l-64 60.8zM518.4 809.6c-166.4 0-300.8-134.4-300.8-300.8s134.4-300.8 300.8-300.8c166.4 0 300.8 134.4 300.8 300.8s-134.4 300.8-300.8 300.8zM518.4 265.6c-134.4 0-243.2 108.8-243.2 243.2s108.8 243.2 243.2 243.2c134.4 0 243.2-108.8 243.2-243.2s-108.8-243.2-243.2-243.2zM492.8 345.6c-48 0-92.8 25.6-115.2 67.2-3.2 3.2-6.4 6.4-12.8 6.4-3.2 0-6.4 0-6.4-3.2-6.4-3.2-9.6-12.8-6.4-19.2 28.8-48 83.2-80 140.8-80 6.4 0 12.8 6.4 12.8 12.8s-6.4 16-12.8 16zM361.6 451.2c-3.2 9.6-3.2 16-3.2 25.6 0 6.4-6.4 12.8-12.8 12.8s-12.8-6.4-12.8-12.8c0-12.8 0-19.2 3.2-32 3.2-6.4 9.6-12.8 16-9.6 6.4 0 9.6 6.4 9.6 16zM531.2 179.2c-16 0-28.8-12.8-28.8-28.8v-83.2c0-16 12.8-28.8 28.8-28.8s28.8 12.8 28.8 28.8v86.4c0 12.8-12.8 25.6-28.8 25.6zM262.4 281.6c-6.4 0-16-3.2-19.2-9.6l-60.8-60.8c-9.6-9.6-9.6-28.8 0-41.6 9.6-9.6 28.8-9.6 41.6 0l60.8 60.8c9.6 9.6 9.6 28.8 0 41.6-6.4 6.4-12.8 9.6-22.4 9.6zM150.4 547.2h-86.4c-16 0-28.8-12.8-28.8-28.8s12.8-28.8 28.8-28.8h86.4c16 0 28.8 12.8 28.8 28.8s-12.8 28.8-28.8 28.8zM243.2 745.6c9.6-9.6 28.8-9.6 41.6 0 9.6 9.6 9.6 28.8 0 41.6l-60.8 60.8c-6.4 6.4-12.8 9.6-19.2 9.6s-16-3.2-19.2-9.6c-9.6-9.6-9.6-28.8 0-41.6l57.6-60.8zM531.2 844.8c16 0 28.8 12.8 28.8 28.8v86.4c0 16-12.8 28.8-28.8 28.8s-28.8-12.8-28.8-28.8v-86.4c0-16 12.8-28.8 28.8-28.8zM793.6 745.6l60.8 60.8c9.6 9.6 9.6 28.8 0 41.6-6.4 6.4-12.8 9.6-19.2 9.6s-16-3.2-19.2-9.6l-60.8-60.8c-9.6-9.6-9.6-28.8 0-41.6s28.8-12.8 38.4 0z"></path>
</symbol>
<symbol id="icon-top5" viewBox="0 0 1024 1024">
	<title>top5</title>
	<path class="path1" d="M528 54.4c-185.6 0-339.2 160-339.2 339.2 0 249.6 332.8 598.4 339.2 601.6s339.2-352 339.2-601.6c-3.2-188.8-153.6-339.2-339.2-339.2zM524.8 614.4c-60.8 0-102.4-22.4-131.2-51.2l38.4-54.4c22.4 19.2 48 38.4 80 38.4 38.4 0 64-19.2 64-57.6s-25.6-57.6-60.8-57.6c-22.4 0-32 3.2-54.4 19.2l-38.4-25.6 9.6-188.8h214.4v73.6h-137.6l-6.4 70.4c12.8-6.4 25.6-9.6 41.6-9.6 64 0 118.4 35.2 118.4 115.2s-64 128-137.6 128z"></path>
</symbol>
<symbol id="icon-payment" viewBox="0 0 1024 1024">
	<title>payment</title>
	<path class="path1" d="M988.8 592c0 28.8-25.6 54.4-54.4 54.4h-259.2c3.2 3.2 6.4 9.6 6.4 12.8 6.4 16 3.2 32-3.2 44.8l-41.6 80c-9.6 19.2-32 32-54.4 32-9.6 0-19.2-3.2-28.8-6.4s-16-9.6-22.4-19.2c-12.8 12.8-28.8 19.2-44.8 19.2-9.6 0-19.2-3.2-28.8-6.4-25.6-12.8-38.4-41.6-32-70.4-9.6 6.4-19.2 12.8-28.8 22.4s-32 25.6-86.4 32c-19.2 3.2-44.8 3.2-86.4 3.2-67.2 0-140.8-3.2-140.8-3.2-16 0-32-12.8-32-28.8l-3.2-278.4c0-9.6 3.2-16 9.6-22.4l198.4-169.6c3.2-3.2 6.4-6.4 12.8-6.4 3.2 0 19.2-6.4 41.6-6.4 16 0 32 3.2 41.6 6.4v-22.4c0-28.8 25.6-54.4 54.4-54.4h521.6c28.8 0 54.4 25.6 54.4 54.4l6.4 332.8zM934.4 608c9.6 0 19.2-6.4 19.2-19.2v-182.4h-553.6v80c44.8-19.2 112-48 153.6-48 32 0 48 16 54.4 25.6 6.4 6.4 12.8 22.4 9.6 44.8-3.2 28.8-19.2 60.8-51.2 96l368 3.2zM569.6 777.6c12.8 6.4 25.6 0 32-9.6l41.6-80c3.2-6.4 3.2-12.8 0-16-3.2-6.4-6.4-9.6-12.8-12.8-3.2-3.2-6.4-3.2-9.6-3.2-9.6 0-16 6.4-22.4 12.8l-41.6 80c-3.2 9.6 3.2 22.4 12.8 28.8zM476.8 771.2c12.8 6.4 25.6 0 32-9.6l41.6-80c3.2-6.4 3.2-12.8 0-16-3.2-6.4-6.4-9.6-12.8-12.8-3.2 0-6.4-3.2-9.6-3.2-19.2 0-28.8 25.6-28.8 25.6l-35.2 64c-3.2 12.8 0 25.6 12.8 32zM358.4 563.2v0 0c-3.2 0-6.4 0-6.4-3.2-9.6-6.4-12.8-16-12.8-25.6v-198.4c-3.2-3.2-12.8-6.4-25.6-6.4-9.6 0-16 0-19.2 3.2l-182.4 156.8v240c28.8 0 76.8 0 118.4 0 44.8 0 67.2 0 80 0 38.4-3.2 51.2-16 51.2-16 3.2-3.2 3.2-3.2 3.2-3.2 35.2-25.6 60.8-48 86.4-67.2v0l38.4-32c76.8-73.6 73.6-105.6 73.6-112 0 0 0 0 0 0s-3.2 0-3.2 0c-38.4 0-124.8 38.4-169.6 60.8-16 6.4-22.4 6.4-32 3.2zM934.4 240h-521.6c-9.6 0-19.2 6.4-19.2 19.2v48h560v-48c0-9.6-9.6-19.2-19.2-19.2zM912 576h-144v-48h144v48z"></path>
</symbol>
<symbol id="icon-bicycle" viewBox="0 0 1024 1024">
	<title>bicycle</title>
	<path class="path1" d="M678.4 188.8c41.6 0 73.6-32 73.6-73.6s-32-73.6-73.6-73.6c-41.6 0-73.6 32-73.6 73.6s32 73.6 73.6 73.6zM803.2 486.4c-115.2 0-208 92.8-208 208s92.8 208 208 208 208-92.8 208-208c0-115.2-92.8-208-208-208zM803.2 838.4c-80 0-144-64-144-144s64-144 144-144c80 0 144 64 144 144s-64 144-144 144zM630.4 403.2h172.8v-73.6h-131.2l-80-134.4c-12.8-19.2-35.2-35.2-60.8-35.2-19.2 0-38.4 6.4-51.2 19.2l-153.6 153.6c-12.8 12.8-19.2 32-19.2 51.2 0 25.6 12.8 48 35.2 60.8l137.6 83.2v208h73.6v-268.8l-92.8-70.4 96-96 73.6 102.4zM224 486.4c-115.2 0-208 92.8-208 208s92.8 208 208 208c115.2 0 208-92.8 208-208-3.2-115.2-96-208-208-208zM224 838.4c-80 0-144-64-144-144s64-144 144-144 144 64 144 144c0 80-64 144-144 144z"></path>
</symbol>
<symbol id="icon-family" viewBox="0 0 1024 1024">
	<title>family</title>
	<path class="path1" d="M739.2 179.2c0 35.346-28.654 64-64 64s-64-28.654-64-64c0-35.346 28.654-64 64-64s64 28.654 64 64z"></path>
	<path class="path2" d="M601.6 864v0 0z"></path>
	<path class="path3" d="M825.6 537.6v-195.2c0-41.6-25.6-83.2-73.6-83.2h-144c-44.8 0-73.6 38.4-73.6 83.2v41.6l-6.4-16c-6.4-19.2-22.4-51.2-64-51.2v0h-99.2c-41.6 0-57.6 35.2-64 51.2l-51.2 166.4c-9.6 35.2 35.2 48 44.8 16l44.8-153.6h12.8l-76.8 272h73.6v211.2c0 35.2 54.4 35.2 54.4 0v-214.4h22.4v214.4c0 35.2 54.4 35.2 54.4 0v-211.2h73.6l-80-272h12.8l44.8 153.6c3.2 9.6 9.6 16 16 19.2 0 0 0 0 3.2 0s3.2 0 3.2 0c12.8 3.2 28.8-6.4 28.8-28.8v-192h16v521.6c0 19.2 16 35.2 35.2 35.2s35.2-16 35.2-35.2v-300.8h16v300.8c0 19.2 16 35.2 35.2 35.2s35.2-16 35.2-35.2v-521.6h16v192c6.4 35.2 54.4 35.2 54.4-3.2z"></path>
	<path class="path4" d="M473.6 236.8c0 31.812-25.788 57.6-57.6 57.6s-57.6-25.788-57.6-57.6c0-31.812 25.788-57.6 57.6-57.6s57.6 25.788 57.6 57.6z"></path>
	<path class="path5" d="M1011.2 665.6l-32-105.6c-3.2-12.8-16-32-41.6-32v0h-64c-25.6 0-35.2 22.4-38.4 32l-32 105.6c-6.4 22.4 22.4 32 28.8 9.6l28.8-96h6.4l-48 169.6h44.8v134.4c0 22.4 35.2 22.4 35.2 0v-134.4h12.8v134.4c0 22.4 35.2 22.4 35.2 0v-134.4h44.8l-48-169.6h9.6l28.8 96c9.6 22.4 35.2 12.8 28.8-9.6z"></path>
	<path class="path6" d="M947.2 483.2c0 21.208-17.192 38.4-38.4 38.4s-38.4-17.192-38.4-38.4c0-21.208 17.192-38.4 38.4-38.4s38.4 17.192 38.4 38.4z"></path>
	<path class="path7" d="M176 400c0 24.742-20.058 44.8-44.8 44.8s-44.8-20.058-44.8-44.8c0-24.742 20.058-44.8 44.8-44.8s44.8 20.058 44.8 44.8z"></path>
	<path class="path8" d="M185.6 451.2h-99.2c-32 0-51.2 25.6-51.2 57.6v137.6c0 25.6 35.2 25.6 35.2 0v-131.2h12.8v361.6c0 12.8 12.8 25.6 25.6 25.6s25.6-12.8 25.6-25.6v-211.2h9.6v211.2c0 12.8 12.8 25.6 25.6 25.6s25.6-12.8 25.6-25.6v-361.6h9.6v134.4c0 25.6 35.2 25.6 35.2 0v-137.6c-3.2-32-22.4-60.8-54.4-60.8z"></path>
</symbol>
<symbol id="icon-tram" viewBox="0 0 1024 1024">
	<title>tram</title>
	<path class="path1" d="M761.6 768h54.4c16 0 28.8-12.8 28.8-28.8v-572.8c0-41.6-35.2-73.6-76.8-73.6h-166.4v-41.6h-192v41.6h-166.4c-41.6 0-76.8 32-76.8 73.6v572.8c0 16 12.8 28.8 28.8 28.8h54.4l-217.6 166.4h140.8l169.6-166.4h320l169.6 166.4h140.8l-211.2-166.4zM668.8 675.2c0-25.6 19.2-44.8 44.8-44.8s44.8 19.2 44.8 44.8-19.2 44.8-44.8 44.8c-22.4 0-44.8-22.4-44.8-44.8zM307.2 720c-25.6 0-44.8-19.2-44.8-44.8s19.2-44.8 44.8-44.8c25.6 0 44.8 19.2 44.8 44.8s-19.2 44.8-44.8 44.8zM262.4 483.2c-9.6 0-16-6.4-16-16v-288c0-9.6 6.4-16 16-16h492.8c9.6 0 16 6.4 16 16v288c0 9.6-6.4 16-16 16h-492.8z"></path>
</symbol>
<symbol id="icon-quotes" viewBox="0 0 1024 1024">
	<title>quotes</title>
	<path class="path1" d="M960 675.2c-9.6 28.8-25.6 51.2-48 73.6-19.2 19.2-41.6 32-70.4 44.8-9.6 3.2-22.4 0-25.6-9.6l-16-32c-6.4-9.6 0-22.4 9.6-28.8 22.4-9.6 41.6-22.4 51.2-38.4 16-19.2 22.4-44.8 22.4-76.8h-60.8c-12.8 0-19.2-9.6-19.2-19.2v-124.8c0-9.6 9.6-19.2 19.2-19.2h124.8c12.8 0 19.2 9.6 19.2 19.2v96c6.4 51.2 0 86.4-6.4 115.2zM681.6 748.8c-19.2 19.2-41.6 32-70.4 44.8-9.6 3.2-22.4 0-25.6-9.6l-16-32c-6.4-9.6 0-22.4 9.6-28.8 22.4-9.6 41.6-22.4 51.2-38.4 16-19.2 22.4-44.8 22.4-76.8h-60.8c-12.8 0-19.2-9.6-19.2-19.2v-124.8c0-9.6 9.6-19.2 19.2-19.2h124.8c12.8 0 19.2 9.6 19.2 19.2v96c0 48-3.2 86.4-12.8 112-3.2 32-19.2 54.4-41.6 76.8zM422.4 316.8c-22.4 9.6-41.6 22.4-51.2 38.4-16 19.2-22.4 44.8-22.4 76.8h60.8c12.8 0 19.2 9.6 19.2 19.2v124.8c0 9.6-9.6 19.2-19.2 19.2h-124.8c-12.8 0-19.2-9.6-19.2-19.2v-96c0-48 3.2-86.4 12.8-112 9.6-28.8 25.6-51.2 48-73.6 19.2-19.2 41.6-32 70.4-44.8 9.6-3.2 22.4 0 25.6 9.6l16 32c0 9.6-6.4 22.4-16 25.6zM192 316.8c-22.4 9.6-41.6 22.4-51.2 38.4-16 19.2-22.4 44.8-22.4 76.8h60.8c12.8 0 19.2 9.6 19.2 19.2v124.8c0 9.6-9.6 19.2-19.2 19.2h-124.8c-12.8 0-19.2-9.6-19.2-19.2v-96c0-48 3.2-86.4 12.8-112 9.6-28.8 25.6-51.2 48-73.6 19.2-19.2 41.6-32 70.4-44.8 9.6-3.2 22.4 0 25.6 9.6l16 32c0 9.6-3.2 22.4-16 25.6z"></path>
</symbol>
<symbol id="icon-passport" viewBox="0 0 1024 1024">
	<title>passport</title>
	<path class="path1" d="M988.8 288l-176 604.8c-6.4 22.4-28.8 38.4-54.4 35.2 0-3.2 0-6.4 0-9.6v-748.8l195.2 57.6c28.8 3.2 44.8 32 35.2 60.8zM659.2 992h-553.6c-41.6 0-76.8-35.2-76.8-76.8v-809.6c0-41.6 35.2-76.8 76.8-76.8h553.6c41.6 0 76.8 35.2 76.8 76.8v809.6c0 41.6-35.2 76.8-76.8 76.8zM448 844.8c32 0 54.4-16 54.4-41.6 0-32-28.8-41.6-48-48-22.4-6.4-28.8-9.6-28.8-22.4 0-9.6 12.8-12.8 25.6-12.8 9.6 0 19.2 3.2 25.6 6.4s12.8 3.2 16-3.2v0c3.2-3.2 3.2-6.4 0-9.6 0-3.2-3.2-6.4-6.4-6.4-9.6-6.4-25.6-9.6-38.4-9.6-32 0-54.4 16-54.4 41.6 0 32 28.8 41.6 48 48 22.4 6.4 28.8 9.6 28.8 22.4s-16 16-28.8 16c-12.8 0-25.6-6.4-32-12.8s-12.8-6.4-19.2 0v0c-3.2 3.2-3.2 6.4-3.2 9.6s0 6.4 3.2 9.6c19.2 3.2 41.6 12.8 57.6 12.8zM252.8 838.4c3.2 3.2 6.4 6.4 9.6 6.4h3.2c6.4 0 9.6-3.2 12.8-6.4l16-32h64l16 32c3.2 3.2 6.4 6.4 12.8 6.4v0c3.2 0 9.6-3.2 9.6-6.4 3.2-3.2 3.2-9.6 0-12.8l-57.6-128c-3.2-3.2-6.4-6.4-12.8-6.4v0c0 0 0 0 0 0v0c-6.4 0-9.6 3.2-12.8 6.4l-57.6 128c-6.4 3.2-6.4 9.6-3.2 12.8zM153.6 704v128c0 6.4 6.4 12.8 12.8 12.8v0c6.4 0 12.8-6.4 12.8-12.8v-32h28.8c38.4 0 60.8-22.4 60.8-54.4s-22.4-54.4-60.8-54.4h-41.6c-6.4 0-12.8 6.4-12.8 12.8zM384 204.8c-112 0-201.6 89.6-201.6 201.6s89.6 201.6 201.6 201.6c112 0 201.6-89.6 201.6-201.6s-89.6-201.6-201.6-201.6zM563.2 716.8c9.6 0 19.2 3.2 25.6 6.4s12.8 3.2 16-3.2v0c3.2-3.2 3.2-6.4 3.2-9.6s-3.2-6.4-6.4-6.4c-9.6-6.4-25.6-9.6-38.4-9.6-32 0-54.4 16-54.4 41.6 0 32 28.8 41.6 48 48 22.4 6.4 28.8 9.6 28.8 22.4s-16 16-28.8 16c-12.8 0-25.6-6.4-32-12.8s-12.8-6.4-19.2 0v0c-3.2 3.2-3.2 6.4-3.2 9.6s0 6.4 3.2 9.6c12.8 12.8 32 19.2 51.2 19.2 32 0 54.4-16 54.4-41.6 0-32-28.8-41.6-48-48-22.4-6.4-28.8-9.6-28.8-22.4 3.2-16 16-19.2 28.8-19.2zM486.4 422.4h67.2c-3.2 22.4-9.6 44.8-19.2 64h-54.4c0-19.2 3.2-41.6 6.4-64zM476.8 323.2h54.4c9.6 19.2 19.2 41.6 19.2 64h-67.2c0-22.4-3.2-44.8-6.4-64zM451.2 249.6c19.2 9.6 38.4 22.4 54.4 38.4h-38.4c-3.2-12.8-9.6-25.6-16-38.4zM316.8 387.2c0-22.4 3.2-44.8 9.6-64h115.2c3.2 19.2 6.4 41.6 9.6 64h-134.4zM384 236.8c16 0 35.2 19.2 48 51.2h-96c12.8-32 32-51.2 48-51.2zM262.4 288c16-16 35.2-28.8 54.4-38.4-6.4 9.6-12.8 22.4-16 38.4h-38.4zM281.6 387.2h-67.2c3.2-22.4 9.6-44.8 19.2-64h54.4c0 19.2-3.2 41.6-6.4 64zM291.2 486.4h-54.4c-9.6-19.2-19.2-41.6-19.2-64h67.2c0 22.4 3.2 44.8 6.4 64zM316.8 556.8c-19.2-9.6-38.4-22.4-54.4-38.4h38.4c3.2 16 9.6 28.8 16 38.4zM451.2 422.4c0 22.4-3.2 44.8-9.6 64h-115.2c-3.2-19.2-6.4-41.6-9.6-64h134.4zM384 572.8c-16 0-35.2-19.2-48-51.2h96c-12.8 32-32 51.2-48 51.2zM505.6 518.4c-16 16-35.2 28.8-54.4 38.4 6.4-9.6 12.8-22.4 16-38.4h38.4zM243.2 745.6c0 19.2-12.8 28.8-35.2 28.8h-28.8v-54.4h28.8c22.4-3.2 35.2 6.4 35.2 25.6zM342.4 777.6h-41.6l19.2-44.8 22.4 44.8z"></path>
</symbol>
<symbol id="icon-ski" viewBox="0 0 1024 1024">
	<title>ski</title>
	<path class="path1" d="M800 220.8c-44.8 0-83.2-38.4-83.2-86.4s38.4-86.4 83.2-86.4c44.8 0 83.2 38.4 83.2 86.4s-38.4 86.4-83.2 86.4zM787.2 480c48 38.4 32 76.8-32 48-105.6-44.8-153.6-67.2-160-96s0-86.4 0-86.4l-60.8 25.6-256-192c0 0-22.4 16-35.2 16s-25.6-9.6-25.6-9.6l28.8-38.4-32-38.4 41.6 19.2c0 0 25.6-35.2 25.6-35.2s12.8 9.6 16 25.6c3.2 16-3.2 32-3.2 32l108.8 83.2c0 0 64-73.6 211.2-73.6 38.4 0 92.8 22.4 92.8 80s-35.2 160-35.2 160 92.8 60.8 115.2 80zM412.8 710.4c28.8-35.2 60.8-80 70.4-92.8 19.2-25.6 12.8-44.8-12.8-64-22.4-19.2-64-41.6-99.2-67.2s-89.6-99.2-32-182.4c0 0 208 147.2 233.6 169.6 28.8 22.4 92.8 80 25.6 169.6-32 38.4-64 76.8-89.6 108.8l374.4 172.8c-48 67.2-140.8 25.6-140.8 25.6l-265.6-156.8c-9.6 12.8-16 19.2-16 19.2l-41.6-19.2-54.4-28.8c0 0 9.6-9.6 19.2-25.6l-355.2-211.2 384 182.4z"></path>
</symbol>
<symbol id="icon-history" viewBox="0 0 1024 1024">
	<title>history</title>
	<path class="path1" d="M947.2 35.2h-438.4c-339.2 0-406.4 256-406.4 368l92.8 48c0-153.6 144-291.2 342.4-291.2 99.2 0 198.4 57.6 259.2 115.2l150.4-240z"></path>
	<path class="path2" d="M777.6 294.4l-355.2 153.6-3.2 54.4h435.2c-3.2-35.2-3.2-131.2-76.8-208z"></path>
	<path class="path3" d="M412.8 537.6l-22.4 288 67.2 44.8 67.2-44.8-22.4-288z"></path>
	<path class="path4" d="M105.6 825.6h246.4l35.2-396.8 348.8-156.8c-51.2-48-124.8-80-204.8-80-188.8 0-304 150.4-304 288l-3.2 54.4-118.4 291.2z"></path>
	<path class="path5" d="M614.4 979.2l41.6-96h92.8c38.4 0 38.4-38.4 38.4-38.4l-12.8-73.6h25.6l-12.8-64h41.6c16 0 9.6-25.6 9.6-25.6-3.2-19.2-28.8-96-44.8-144h-259.2l25.6 304c0 6.4-3.2 9.6-6.4 12.8l-96 64-83.2-54.4h-131.2l-48 115.2h419.2z"></path>
</symbol>
<symbol id="icon-book" viewBox="0 0 1024 1024">
	<title>book</title>
	<path class="path1" d="M483.2 988.8l-444.8-118.4v-713.6l444.8 118.4v713.6zM988.8 153.6l-444.8 118.4v713.6l444.8-118.4v-713.6zM512 220.8l358.4-96v-89.6l-358.4 179.2-358.4-179.2v89.6l358.4 96z"></path>
</symbol>
<symbol id="icon-walk" viewBox="0 0 1024 1024">
	<title>walk</title>
	<path class="path1" d="M537.6 150.4c38.4 0 67.2-28.8 67.2-67.2s-28.8-67.2-67.2-67.2c-38.4 0-67.2 28.8-67.2 67.2 0 35.2 32 67.2 67.2 67.2z"></path>
	<path class="path2" d="M243.2 521.6l44.8-3.2v-156.8l80-51.2c0 0-12.8 102.4-12.8 156.8 0 48-3.2 86.4-3.2 86.4l-102.4 412.8 73.6 28.8 115.2-377.6 80 102.4 92.8 259.2 83.2-32-92.8-275.2-102.4-160 28.8-211.2 64 134.4 163.2 57.6 22.4-41.6-150.4-86.4c0 0-35.2-96-67.2-156.8-9.6-19.2-51.2-28.8-67.2-28.8-48-3.2-73.6 12.8-112 35.2s-150.4 105.6-150.4 105.6l12.8 201.6z"></path>
</symbol>
<symbol id="icon-film" viewBox="0 0 1024 1024">
	<title>film</title>
	<path class="path1" d="M928 0h-832c-17.664 0-32 14.336-32 32v960c0 17.696 14.336 32 32 32h832c17.696 0 32-14.304 32-32v-960c0-17.664-14.304-32-32-32zM160 896c-17.664 0-32-14.304-32-32s14.336-32 32-32 32 14.304 32 32-14.336 32-32 32zM160 768c-17.664 0-32-14.304-32-32s14.336-32 32-32 32 14.304 32 32-14.336 32-32 32zM160 640c-17.664 0-32-14.304-32-32s14.336-32 32-32 32 14.304 32 32-14.336 32-32 32zM160 512c-17.664 0-32-14.336-32-32s14.336-32 32-32 32 14.336 32 32-14.336 32-32 32zM160 384c-17.664 0-32-14.336-32-32s14.336-32 32-32 32 14.336 32 32-14.336 32-32 32zM160 256c-17.664 0-32-14.336-32-32s14.336-32 32-32 32 14.336 32 32-14.336 32-32 32zM160 128c-17.664 0-32-14.336-32-32s14.336-32 32-32 32 14.336 32 32-14.336 32-32 32zM768 928c0 17.696-14.304 32-32 32h-448c-17.664 0-32-14.304-32-32v-320c0-17.696 14.336-32 32-32h448c17.696 0 32 14.304 32 32v320zM768 480c0 17.664-14.304 32-32 32h-448c-17.664 0-32-14.336-32-32v-384c0-17.664 14.336-32 32-32h448c17.696 0 32 14.336 32 32v384zM864 896c-17.696 0-32-14.304-32-32s14.304-32 32-32 32 14.304 32 32-14.304 32-32 32zM864 768c-17.696 0-32-14.304-32-32s14.304-32 32-32 32 14.304 32 32-14.304 32-32 32zM864 640c-17.696 0-32-14.304-32-32s14.304-32 32-32 32 14.304 32 32-14.304 32-32 32zM864 512c-17.696 0-32-14.336-32-32s14.304-32 32-32 32 14.336 32 32-14.304 32-32 32zM864 384c-17.696 0-32-14.336-32-32s14.304-32 32-32 32 14.336 32 32-14.304 32-32 32zM864 256c-17.696 0-32-14.336-32-32s14.304-32 32-32 32 14.336 32 32-14.304 32-32 32zM864 128c-17.696 0-32-14.336-32-32s14.304-32 32-32 32 14.336 32 32-14.304 32-32 32z"></path>
</symbol>
<symbol id="icon-music" viewBox="0 0 1024 1024">
	<title>music</title>
	<path class="path1" d="M288 576h-64v448h64c17.6 0 32-14.4 32-32v-384c0-17.6-14.4-32-32-32z"></path>
	<path class="path2" d="M736 576c-17.602 0-32 14.4-32 32v384c0 17.6 14.398 32 32 32h64v-448h-64z"></path>
	<path class="path3" d="M1024 512c0-282.77-229.23-512-512-512s-512 229.23-512 512c0 61.412 10.83 120.29 30.656 174.848-19.478 33.206-30.656 71.87-30.656 113.152 0 112.846 83.448 206.188 192 221.716v-443.418c-31.914 4.566-61.664 15.842-87.754 32.378-5.392-26.718-8.246-54.364-8.246-82.676 0-229.75 186.25-416 416-416s416 186.25 416 416c0 28.314-2.83 55.968-8.22 82.696-26.1-16.546-55.854-27.848-87.78-32.418v443.44c108.548-15.532 192-108.874 192-221.714 0-41.274-11.178-79.934-30.648-113.138 19.828-54.566 30.648-113.452 30.648-174.866z"></path>
</symbol>
<symbol id="icon-ribbon" viewBox="0 0 1024 1024">
	<title>ribbon</title>
	<path class="path1" d="M192 0v1024l320-320 320 320v-1024z"></path>
</symbol>
<symbol id="icon-office" viewBox="0 0 1024 1024">
	<title>office</title>
	<path class="path1" d="M0 1024h512v-1024h-512v1024zM320 128h128v128h-128v-128zM320 384h128v128h-128v-128zM320 640h128v128h-128v-128zM64 128h128v128h-128v-128zM64 384h128v128h-128v-128zM64 640h128v128h-128v-128zM576 320h448v64h-448zM576 1024h128v-256h192v256h128v-576h-448z"></path>
</symbol>
<symbol id="icon-eat" viewBox="0 0 1024 1024">
	<title>eat</title>
	<path class="path1" d="M224 0c-106.040 0-192 100.288-192 224 0 105.924 63.022 194.666 147.706 217.998l-31.788 518.124c-2.154 35.132 24.882 63.878 60.082 63.878h32c35.2 0 62.236-28.746 60.082-63.878l-31.788-518.124c84.684-23.332 147.706-112.074 147.706-217.998 0-123.712-85.96-224-192-224zM869.334 0l-53.334 320h-40l-26.666-320h-26.668l-26.666 320h-40l-53.334-320h-26.666v416c0 17.672 14.326 32 32 32h83.338l-31.42 512.122c-2.154 35.132 24.882 63.878 60.082 63.878h32c35.2 0 62.236-28.746 60.082-63.878l-31.42-512.122h83.338c17.674 0 32-14.328 32-32v-416h-26.666z"></path>
</symbol>
<symbol id="icon-airplane" viewBox="0 0 1024 1024">
	<title>airplane</title>
	<path class="path1" d="M768 639.968l-182.82-182.822 438.82-329.15-128.010-127.996-548.52 219.442-172.7-172.706c-49.78-49.778-119.302-61.706-154.502-26.508-35.198 35.198-23.268 104.726 26.51 154.5l172.686 172.684-219.464 548.582 127.99 128.006 329.19-438.868 182.826 182.828v255.98h127.994l63.992-191.988 191.988-63.996v-127.992l-255.98 0.004z"></path>
</symbol>
<symbol id="icon-earth" viewBox="0 0 1024 1024">
	<title>earth</title>
	<path class="path1" d="M512 0c-282.77 0-512 229.23-512 512s229.23 512 512 512 512-229.23 512-512-229.23-512-512-512zM512 960.002c-62.958 0-122.872-13.012-177.23-36.452l233.148-262.29c5.206-5.858 8.082-13.422 8.082-21.26v-96c0-17.674-14.326-32-32-32-112.99 0-232.204-117.462-233.374-118.626-6-6.002-14.14-9.374-22.626-9.374h-128c-17.672 0-32 14.328-32 32v192c0 12.122 6.848 23.202 17.69 28.622l110.31 55.156v187.886c-116.052-80.956-192-215.432-192-367.664 0-68.714 15.49-133.806 43.138-192h116.862c8.488 0 16.626-3.372 22.628-9.372l128-128c6-6.002 9.372-14.14 9.372-22.628v-77.412c40.562-12.074 83.518-18.588 128-18.588 70.406 0 137.004 16.26 196.282 45.2-4.144 3.502-8.176 7.164-12.046 11.036-36.266 36.264-56.236 84.478-56.236 135.764s19.97 99.5 56.236 135.764c36.434 36.432 85.218 56.264 135.634 56.26 3.166 0 6.342-0.080 9.518-0.236 13.814 51.802 38.752 186.656-8.404 372.334-0.444 1.744-0.696 3.488-0.842 5.224-81.324 83.080-194.7 134.656-320.142 134.656z"></path>
</symbol>
<symbol id="icon-star-empty" viewBox="0 0 1024 1024">
	<title>star-empty</title>
	<path class="path1" d="M1024 397.050l-353.78-51.408-158.22-320.582-158.216 320.582-353.784 51.408 256 249.538-60.432 352.352 316.432-166.358 316.432 166.358-60.434-352.352 256.002-249.538zM512 753.498l-223.462 117.48 42.676-248.83-180.786-176.222 249.84-36.304 111.732-226.396 111.736 226.396 249.836 36.304-180.788 176.222 42.678 248.83-223.462-117.48z"></path>
</symbol>
<symbol id="icon-star-half" viewBox="0 0 1024 1024">
	<title>star-half</title>
	<path class="path1" d="M1024 397.050l-353.78-51.408-158.22-320.582-158.216 320.582-353.784 51.408 256 249.538-60.432 352.352 316.432-166.358 316.432 166.358-60.434-352.352 256.002-249.538zM512 753.498l-0.942 0.496 0.942-570.768 111.736 226.396 249.836 36.304-180.788 176.222 42.678 248.83-223.462-117.48z"></path>
</symbol>
<symbol id="icon-star-full" viewBox="0 0 1024 1024">
	<title>star-full</title>
	<path class="path1" d="M1024 397.050l-353.78-51.408-158.22-320.582-158.216 320.582-353.784 51.408 256 249.538-60.432 352.352 316.432-166.358 316.432 166.358-60.434-352.352 256.002-249.538z"></path>
</symbol>
<symbol id="icon-share" viewBox="0 0 1024 1024">
	<title>share</title>
	<path class="path1" d="M864 704c-45.16 0-85.92 18.738-115.012 48.83l-431.004-215.502c1.314-8.252 2.016-16.706 2.016-25.328s-0.702-17.076-2.016-25.326l431.004-215.502c29.092 30.090 69.852 48.828 115.012 48.828 88.366 0 160-71.634 160-160s-71.634-160-160-160-160 71.634-160 160c0 8.622 0.704 17.076 2.016 25.326l-431.004 215.504c-29.092-30.090-69.852-48.83-115.012-48.83-88.366 0-160 71.636-160 160 0 88.368 71.634 160 160 160 45.16 0 85.92-18.738 115.012-48.828l431.004 215.502c-1.312 8.25-2.016 16.704-2.016 25.326 0 88.368 71.634 160 160 160s160-71.632 160-160c0-88.364-71.634-160-160-160z"></path>
</symbol>
<symbol id="icon-google-plus" viewBox="0 0 1024 1024">
	<title>google-plus</title>
	<path class="path1" d="M559.066 64c0 0-200.956 0-267.94 0-120.12 0-233.17 91.006-233.17 196.422 0 107.726 81.882 194.666 204.088 194.666 8.498 0 16.756-0.17 24.842-0.752-7.93 15.186-13.602 32.288-13.602 50.042 0 29.938 16.104 54.21 36.468 74.024-15.386 0-30.242 0.448-46.452 0.448-148.782-0.002-263.3 94.758-263.3 193.020 0 96.778 125.542 157.314 274.334 157.314 169.624 0 263.306-96.244 263.306-193.028 0-77.6-22.896-124.072-93.686-174.134-24.216-17.144-70.53-58.836-70.53-83.344 0-28.72 8.196-42.868 51.428-76.646 44.312-34.624 75.672-83.302 75.672-139.916 0-67.406-30.020-133.098-86.372-154.772h84.954l59.96-43.344zM465.48 719.458c2.126 8.972 3.284 18.206 3.284 27.628 0 78.2-50.392 139.31-194.974 139.31-102.842 0-177.116-65.104-177.116-143.3 0-76.642 92.126-140.444 194.964-139.332 24 0.254 46.368 4.116 66.67 10.69 55.826 38.826 95.876 60.762 107.172 105.004zM300.818 427.776c-69.038-2.064-134.636-77.226-146.552-167.86-11.916-90.666 34.37-160.042 103.388-157.99 69.010 2.074 134.638 74.814 146.558 165.458 11.906 90.66-34.39 162.458-103.394 160.392zM832 256v-192h-64v192h-192v64h192v192h64v-192h192v-64z"></path>
</symbol>
<symbol id="icon-facebook" viewBox="0 0 1024 1024">
	<title>facebook</title>
	<path class="path1" d="M672 192c-88.366 0-160 71.634-160 160v96h-128v128h128v448h128v-448h144l32-128h-176v-96c0-17.672 14.326-32 32-32h160v-128h-160z"></path>
</symbol>
<symbol id="icon-twitter" viewBox="0 0 1024 1024">
	<title>twitter</title>
	<path class="path1" d="M1024 194.418c-37.676 16.708-78.164 28.002-120.66 33.080 43.372-26 76.686-67.17 92.372-116.23-40.596 24.078-85.556 41.56-133.41 50.98-38.32-40.83-92.922-66.34-153.346-66.34-116.022 0-210.088 94.058-210.088 210.078 0 16.466 1.858 32.5 5.44 47.878-174.6-8.764-329.402-92.4-433.018-219.506-18.084 31.028-28.446 67.116-28.446 105.618 0 72.888 37.088 137.192 93.46 174.866-34.438-1.092-66.832-10.542-95.154-26.278-0.020 0.876-0.020 1.756-0.020 2.642 0 101.788 72.418 186.696 168.522 206-17.626 4.8-36.188 7.372-55.348 7.372-13.538 0-26.698-1.32-39.528-3.772 26.736 83.46 104.32 144.206 196.252 145.896-71.9 56.35-162.486 89.934-260.916 89.934-16.958 0-33.68-0.994-50.116-2.94 92.972 59.61 203.402 94.394 322.042 94.394 386.422 0 597.736-320.124 597.736-597.744 0-9.108-0.206-18.168-0.61-27.18 41.056-29.62 76.672-66.62 104.836-108.748z"></path>
</symbol>
<symbol id="icon-youtube" viewBox="0 0 1024 1024">
	<title>youtube</title>
	<path class="path1" d="M832 128h-640c-105.6 0-192 86.4-192 192v384c0 105.6 86.4 192 192 192h640c105.6 0 192-86.4 192-192v-384c0-105.6-86.4-192-192-192zM384 768v-512l320 256-320 256z"></path>
</symbol>
<symbol id="icon-youtube3" viewBox="0 0 1024 1024">
	<title>youtube3</title>
	<path class="path1" d="M293.188 0l-69.188 137.234-69.188-137.234h-88.248l124.71 217.314 0.726-0.43v167.116h64v-167.116l0.726 0.43 124.71-217.314z"></path>
	<path class="path2" d="M480 128c17.346 0 32 14.654 32 32v128c0 17.346-14.654 32-32 32s-32-14.654-32-32v-128c0-17.346 14.654-32 32-32zM480 64c-52.8 0-96 43.2-96 96v128c0 52.8 43.2 96 96 96s96-43.2 96-96v-128c0-52.8-43.2-96-96-96v0z"></path>
	<path class="path3" d="M768 64v251.968c-27.922 23.288-64 37.332-64-45.634v-206.334h-64v219.324h0.096c0.986 52.91 12.142 148.168 127.904 70.712v29.964h64v-320h-64z"></path>
	<path class="path4" d="M864 704c-17.644 0-32 14.356-32 32v32h64v-32c0-17.644-14.356-32-32-32z"></path>
	<path class="path5" d="M576 736v168c21.666 21.666 64 24 64-8s0-118 0-150-32-42-64-10z"></path>
	<path class="path6" d="M1018.766 581.54c-2.792-36.862-16.046-66.942-39.778-90.244-23.726-23.298-54.080-35.994-91.068-38.080-69.784-3.478-229.452-5.216-369.716-5.216-140.266 0-311.294 1.738-381.078 5.216-36.986 2.086-67.342 14.782-91.068 38.080-23.728 23.302-36.988 53.382-39.778 90.244-4.188 75.116-6.28 102.352-6.28 139.91 0 37.56 2.092 93.894 6.28 169.012 2.792 36.862 16.050 66.944 39.778 90.244 23.726 23.298 54.082 35.992 91.068 38.080 69.782 3.476 240.81 5.214 381.078 5.214 140.266 0 299.934-1.738 369.716-5.214 36.988-2.088 67.342-14.782 91.068-38.080 23.73-23.3 36.986-53.382 39.778-90.244 3.49-62.598 5.234-118.934 5.234-169.012 0-50.076-1.744-77.314-5.234-139.91zM192 960h-64v-320h-64v-64h192v64h-64v320zM448 960h-64v-29.962c-121.666 68.294-126.918 2.198-127.904-50.712h-0.096v-175.326h64v176.334c0 38.666 36.078 34.924 64 11.634v-187.968h64v256zM704 895.086c0 66.892-68.504 86.402-128 34.39v30.524h-64v-384h64v104c64-64 128-40 128 24s0 121.172 0 191.086zM960 768v32h-128v64c0 17.644 14.356 32 32 32s32-14.356 32-32v-32h64v32c0 52.934-43.066 96-96 96s-96-43.066-96-96v-128c0-52.934 43.066-96 96-96s96 43.066 96 96v32z"></path>
</symbol>
<symbol id="icon-search" viewBox="0 0 951 1024">
	<title>search</title>
	<path class="path1" d="M658.286 475.429q0-105.714-75.143-180.857t-180.857-75.143-180.857 75.143-75.143 180.857 75.143 180.857 180.857 75.143 180.857-75.143 75.143-180.857zM950.857 950.857q0 29.714-21.714 51.429t-51.429 21.714q-30.857 0-51.429-21.714l-196-195.429q-102.286 70.857-228 70.857-81.714 0-156.286-31.714t-128.571-85.714-85.714-128.571-31.714-156.286 31.714-156.286 85.714-128.571 128.571-85.714 156.286-31.714 156.286 31.714 128.571 85.714 85.714 128.571 31.714 156.286q0 125.714-70.857 228l196 196q21.143 21.143 21.143 51.429z"></path>
</symbol>
<symbol id="icon-heart" viewBox="0 0 1024 1024">
	<title>heart</title>
	<path class="path1" d="M512 950.857q-14.857 0-25.143-10.286l-356.571-344q-5.714-4.571-15.714-14.857t-31.714-37.429-38.857-55.714-30.571-69.143-13.429-78.857q0-125.714 72.571-196.571t200.571-70.857q35.429 0 72.286 12.286t68.571 33.143 54.571 39.143 43.429 38.857q20.571-20.571 43.429-38.857t54.571-39.143 68.571-33.143 72.286-12.286q128 0 200.571 70.857t72.571 196.571q0 126.286-130.857 257.143l-356 342.857q-10.286 10.286-25.143 10.286z"></path>
</symbol>
<symbol id="icon-flag" viewBox="0 0 1024 1024">
	<title>flag</title>
	<path class="path1" d="M182.857 146.286q0 41.143-36.571 62.857v723.429q0 7.429-5.429 12.857t-12.857 5.429h-36.571q-7.429 0-12.857-5.429t-5.429-12.857v-723.429q-36.571-21.714-36.571-62.857 0-30.286 21.429-51.714t51.714-21.429 51.714 21.429 21.429 51.714zM1024 182.857v436q0 14.286-7.143 22t-22.571 15.714q-122.857 66.286-210.857 66.286-34.857 0-70.571-12.571t-62-27.429-66-27.429-81.429-12.571q-109.714 0-265.143 83.429-9.714 5.143-18.857 5.143-14.857 0-25.714-10.857t-10.857-25.714v-424q0-18.286 17.714-31.429 12-8 45.143-24.571 134.857-68.571 240.571-68.571 61.143 0 114.286 16.571t125.143 50.286q21.714 10.857 50.286 10.857 30.857 0 67.143-12t62.857-26.857 50.286-26.857 31.143-12q14.857 0 25.714 10.857t10.857 25.714z"></path>
</symbol>
<symbol id="icon-comments" viewBox="0 0 1024 1024">
	<title>comments</title>
	<path class="path1" d="M804.571 438.857q0 79.429-53.714 146.857t-146.571 106.571-202 39.143q-49.143 0-100.571-9.143-70.857 50.286-158.857 73.143-20.571 5.143-49.143 9.143h-1.714q-6.286 0-11.714-4.571t-6.571-12q-0.571-1.714-0.571-3.714t0.286-3.714 1.143-3.429l1.429-2.857t2-3.143 2.286-2.857 2.571-2.857 2.286-2.571q2.857-3.429 13.143-14.286t14.857-16.857 12.857-16.571 14.286-22 11.714-25.143q-70.857-41.143-111.429-101.143t-40.571-128q0-79.429 53.714-146.857t146.571-106.571 202-39.143 202 39.143 146.571 106.571 53.714 146.857zM1024 585.143q0 68.571-40.571 128.286t-111.429 100.857q5.714 13.714 11.714 25.143t14.286 22 12.857 16.571 14.857 16.857 13.143 14.286q0.571 0.571 2.286 2.571t2.571 2.857 2.286 2.857 2 3.143l1.429 2.857t1.143 3.429 0.286 3.714-0.571 3.714q-1.714 8-7.429 12.571t-12.571 4q-28.571-4-49.143-9.143-88-22.857-158.857-73.143-51.429 9.143-100.571 9.143-154.857 0-269.714-75.429 33.143 2.286 50.286 2.286 92 0 176.571-25.714t150.857-73.714q71.429-52.571 109.714-121.143t38.286-145.143q0-44-13.143-86.857 73.714 40.571 116.571 101.714t42.857 131.429z"></path>
</symbol>
<symbol id="icon-paperclip" viewBox="0 0 805 1024">
	<title>paperclip</title>
	<path class="path1" d="M802.286 791.429q0 66.857-45.143 112t-112 45.143q-77.143 0-134.286-57.143l-444-443.429q-64.571-65.714-64.571-154.857 0-90.857 62.857-154.286t153.714-63.429q90.286 0 156 64.571l345.714 346.286q5.714 5.714 5.714 12.571 0 9.143-17.429 26.571t-26.571 17.429q-7.429 0-13.143-5.714l-346.286-346.857q-45.143-44-103.429-44-60.571 0-102.286 42.857t-41.714 103.429q0 60 43.429 103.429l443.429 444q36 36 82.857 36 36.571 0 60.571-24t24-60.571q0-46.857-36-82.857l-332-332q-14.857-13.714-34.286-13.714-16.571 0-27.429 10.857t-10.857 27.429q0 18.286 14.286 33.714l234.286 234.286q5.714 5.714 5.714 12.571 0 9.143-17.714 26.857t-26.857 17.714q-6.857 0-12.571-5.714l-234.286-234.286q-36-34.857-36-85.143 0-46.857 32.571-79.429t79.429-32.571q50.286 0 85.143 36l332 332q57.143 56 57.143 134.286z"></path>
</symbol>
<symbol id="icon-angle-double-left" viewBox="0 0 585 1024">
	<title>angle-double-left</title>
	<path class="path1" d="M358.286 786.286q0 7.429-5.714 13.143l-28.571 28.571q-5.714 5.714-13.143 5.714t-13.143-5.714l-266.286-266.286q-5.714-5.714-5.714-13.143t5.714-13.143l266.286-266.286q5.714-5.714 13.143-5.714t13.143 5.714l28.571 28.571q5.714 5.714 5.714 13.143t-5.714 13.143l-224.571 224.571 224.571 224.571q5.714 5.714 5.714 13.143zM577.714 786.286q0 7.429-5.714 13.143l-28.571 28.571q-5.714 5.714-13.143 5.714t-13.143-5.714l-266.286-266.286q-5.714-5.714-5.714-13.143t5.714-13.143l266.286-266.286q5.714-5.714 13.143-5.714t13.143 5.714l28.571 28.571q5.714 5.714 5.714 13.143t-5.714 13.143l-224.571 224.571 224.571 224.571q5.714 5.714 5.714 13.143z"></path>
</symbol>
<symbol id="icon-angle-double-right" viewBox="0 0 585 1024">
	<title>angle-double-right</title>
	<path class="path1" d="M340 548.571q0 7.429-5.714 13.143l-266.286 266.286q-5.714 5.714-13.143 5.714t-13.143-5.714l-28.571-28.571q-5.714-5.714-5.714-13.143t5.714-13.143l224.571-224.571-224.571-224.571q-5.714-5.714-5.714-13.143t5.714-13.143l28.571-28.571q5.714-5.714 13.143-5.714t13.143 5.714l266.286 266.286q5.714 5.714 5.714 13.143zM559.429 548.571q0 7.429-5.714 13.143l-266.286 266.286q-5.714 5.714-13.143 5.714t-13.143-5.714l-28.571-28.571q-5.714-5.714-5.714-13.143t5.714-13.143l224.571-224.571-224.571-224.571q-5.714-5.714-5.714-13.143t5.714-13.143l28.571-28.571q5.714-5.714 13.143-5.714t13.143 5.714l266.286 266.286q5.714 5.714 5.714 13.143z"></path>
</symbol>
<symbol id="icon-angle-double-up" viewBox="0 0 658 1024">
	<title>angle-double-up</title>
	<path class="path1" d="M614.286 749.714q0 7.429-5.714 13.143l-28.571 28.571q-5.714 5.714-13.143 5.714t-13.143-5.714l-224.571-224.571-224.571 224.571q-5.714 5.714-13.143 5.714t-13.143-5.714l-28.571-28.571q-5.714-5.714-5.714-13.143t5.714-13.143l266.286-266.286q5.714-5.714 13.143-5.714t13.143 5.714l266.286 266.286q5.714 5.714 5.714 13.143zM614.286 530.286q0 7.429-5.714 13.143l-28.571 28.571q-5.714 5.714-13.143 5.714t-13.143-5.714l-224.571-224.571-224.571 224.571q-5.714 5.714-13.143 5.714t-13.143-5.714l-28.571-28.571q-5.714-5.714-5.714-13.143t5.714-13.143l266.286-266.286q5.714-5.714 13.143-5.714t13.143 5.714l266.286 266.286q5.714 5.714 5.714 13.143z"></path>
</symbol>
<symbol id="icon-angle-double-down" viewBox="0 0 658 1024">
	<title>angle-double-down</title>
	<path class="path1" d="M614.286 493.714q0 7.429-5.714 13.143l-266.286 266.286q-5.714 5.714-13.143 5.714t-13.143-5.714l-266.286-266.286q-5.714-5.714-5.714-13.143t5.714-13.143l28.571-28.571q5.714-5.714 13.143-5.714t13.143 5.714l224.571 224.571 224.571-224.571q5.714-5.714 13.143-5.714t13.143 5.714l28.571 28.571q5.714 5.714 5.714 13.143zM614.286 274.286q0 7.429-5.714 13.143l-266.286 266.286q-5.714 5.714-13.143 5.714t-13.143-5.714l-266.286-266.286q-5.714-5.714-5.714-13.143t5.714-13.143l28.571-28.571q5.714-5.714 13.143-5.714t13.143 5.714l224.571 224.571 224.571-224.571q5.714-5.714 13.143-5.714t13.143 5.714l28.571 28.571q5.714 5.714 5.714 13.143z"></path>
</symbol>
<symbol id="icon-angle-left" viewBox="0 0 366 1024">
	<title>angle-left</title>
	<path class="path1" d="M358.286 310.857q0 7.429-5.714 13.143l-224.571 224.571 224.571 224.571q5.714 5.714 5.714 13.143t-5.714 13.143l-28.571 28.571q-5.714 5.714-13.143 5.714t-13.143-5.714l-266.286-266.286q-5.714-5.714-5.714-13.143t5.714-13.143l266.286-266.286q5.714-5.714 13.143-5.714t13.143 5.714l28.571 28.571q5.714 5.714 5.714 13.143z"></path>
</symbol>
<symbol id="icon-angle-right" viewBox="0 0 366 1024">
	<title>angle-right</title>
	<path class="path1" d="M340 548.571q0 7.429-5.714 13.143l-266.286 266.286q-5.714 5.714-13.143 5.714t-13.143-5.714l-28.571-28.571q-5.714-5.714-5.714-13.143t5.714-13.143l224.571-224.571-224.571-224.571q-5.714-5.714-5.714-13.143t5.714-13.143l28.571-28.571q5.714-5.714 13.143-5.714t13.143 5.714l266.286 266.286q5.714 5.714 5.714 13.143z"></path>
</symbol>
<symbol id="icon-angle-up" viewBox="0 0 658 1024">
	<title>angle-up</title>
	<path class="path1" d="M614.286 676.571q0 7.429-5.714 13.143l-28.571 28.571q-5.714 5.714-13.143 5.714t-13.143-5.714l-224.571-224.571-224.571 224.571q-5.714 5.714-13.143 5.714t-13.143-5.714l-28.571-28.571q-5.714-5.714-5.714-13.143t5.714-13.143l266.286-266.286q5.714-5.714 13.143-5.714t13.143 5.714l266.286 266.286q5.714 5.714 5.714 13.143z"></path>
</symbol>
<symbol id="icon-angle-down" viewBox="0 0 658 1024">
	<title>angle-down</title>
	<path class="path1" d="M614.286 420.571q0 7.429-5.714 13.143l-266.286 266.286q-5.714 5.714-13.143 5.714t-13.143-5.714l-266.286-266.286q-5.714-5.714-5.714-13.143t5.714-13.143l28.571-28.571q5.714-5.714 13.143-5.714t13.143 5.714l224.571 224.571 224.571-224.571q5.714-5.714 13.143-5.714t13.143 5.714l28.571 28.571q5.714 5.714 5.714 13.143z"></path>
</symbol>
<symbol id="icon-ticket" viewBox="0 0 1024 1024">
	<title>ticket</title>
	<path class="path1" d="M585.143 258.286l180.571 180.571-326.857 326.857-180.571-180.571zM464.571 817.714l353.143-353.143q10.857-10.857 10.857-25.714t-10.857-25.714l-206.857-206.857q-10.286-10.286-25.714-10.286t-25.714 10.286l-353.143 353.143q-10.857 10.857-10.857 25.714t10.857 25.714l206.857 206.857q10.286 10.286 25.714 10.286t25.714-10.286zM972.571 453.714l-518.286 518.857q-21.143 21.143-51.714 21.143t-51.714-21.143l-72-72q32-32 32-77.714t-32-77.714-77.714-32-77.714 32l-71.429-72q-21.143-21.143-21.143-51.714t21.143-51.714l518.286-517.714q21.143-21.143 51.714-21.143t51.714 21.143l71.429 71.429q-32 32-32 77.714t32 77.714 77.714 32 77.714-32l72 71.429q21.143 21.143 21.143 51.714t-21.143 51.714z"></path>
</symbol>
<symbol id="icon-automobile" viewBox="0 0 1170 1024">
	<title>automobile</title>
	<path class="path1" d="M274.286 621.714q0-37.714-26.857-64.571t-64.571-26.857-64.571 26.857-26.857 64.571 26.857 64.571 64.571 26.857 64.571-26.857 26.857-64.571zM294.857 438.857h580.571l-50.857-204q-1.143-4.571-8-10t-12-5.429h-438.857q-5.143 0-12 5.429t-8 10zM1078.857 621.714q0-37.714-26.857-64.571t-64.571-26.857-64.571 26.857-26.857 64.571 26.857 64.571 64.571 26.857 64.571-26.857 26.857-64.571zM1170.286 566.857v219.429q0 8-5.143 13.143t-13.143 5.143h-54.857v73.143q0 45.714-32 77.714t-77.714 32-77.714-32-32-77.714v-73.143h-585.143v73.143q0 45.714-32 77.714t-77.714 32-77.714-32-32-77.714v-73.143h-54.857q-8 0-13.143-5.143t-5.143-13.143v-219.429q0-53.143 37.429-90.571t90.571-37.429h16l60-239.429q13.143-53.714 59.429-90t102.286-36.286h438.857q56 0 102.286 36.286t59.429 90l60 239.429h16q53.143 0 90.571 37.429t37.429 90.571z"></path>
</symbol>
<symbol id="icon-cab" viewBox="0 0 1170 1024">
	<title>cab</title>
	<path class="path1" d="M1042.286 512q53.143 0 90.571 37.429t37.429 90.571v219.429q0 8-5.143 13.143t-13.143 5.143h-54.857v36.571q0 45.714-32 77.714t-77.714 32-77.714-32-32-77.714v-36.571h-585.143v36.571q0 45.714-32 77.714t-77.714 32-77.714-32-32-77.714v-36.571h-54.857q-8 0-13.143-5.143t-5.143-13.143v-219.429q0-53.143 37.429-90.571t90.571-37.429h16l60-239.429q13.143-53.714 59.429-90t102.286-36.286h73.143v-128q0-8 5.143-13.143t13.143-5.143h256q8 0 13.143 5.143t5.143 13.143v128h73.143q56 0 102.286 36.286t59.429 90l60 239.429h16zM182.857 786.286q37.714 0 64.571-26.857t26.857-64.571-26.857-64.571-64.571-26.857-64.571 26.857-26.857 64.571 26.857 64.571 64.571 26.857zM294.857 512h580.571l-50.857-204q-1.143-4.571-8-10t-12-5.429h-438.857q-5.143 0-12 5.429t-8 10zM987.429 786.286q37.714 0 64.571-26.857t26.857-64.571-26.857-64.571-64.571-26.857-64.571 26.857-26.857 64.571 26.857 64.571 64.571 26.857z"></path>
</symbol>
<symbol id="icon-mars-double" viewBox="0 0 1097 1024">
	<title>mars-double</title>
	<path class="path1" d="M877.714 237.714q0-8 5.143-13.143t13.143-5.143h164.571q14.857 0 25.714 10.857t10.857 25.714v164.571q0 8-5.143 13.143t-13.143 5.143h-36.571q-8 0-13.143-5.143t-5.143-13.143v-76.571l-145.143 145.714q43.429 54.286 61.429 122.286t5.429 141.143q-17.714 104-94.857 178.286t-181.714 89.143q-120 16.571-219.714-45.714t-138-171.429q-66.857-3.429-126.286-32.857t-101.429-76-64.857-110-18.286-131.429q5.143-77.143 44.571-144t104-109.429 141.714-51.143q67.429-8 130 10.857t113.429 58.857l145.714-145.143h-76.571q-8 0-13.143-5.143t-5.143-13.143v-36.571q0-8 5.143-13.143t13.143-5.143h164.571q14.857 0 25.714 10.857t10.857 25.714v164.571q0 8-5.143 13.143t-13.143 5.143h-36.571q-8 0-13.143-5.143t-5.143-13.143v-76.571l-145.143 145.714q33.714 42.286 53.143 96.571 104 5.143 187.429 70.857l145.714-145.143h-76.571q-8 0-13.143-5.143t-5.143-13.143v-36.571zM585.143 475.429q0-11.429-2.286-33.143-92.571 14.286-154.857 85.714t-62.286 166.857q0 11.429 2.286 33.143 92.571-14.286 154.857-85.714t62.286-166.857zM73.143 475.429q0 96 63.429 168t157.714 85.143q-1.714-16.571-1.714-33.714 0-120 77.143-211.143t193.143-112.286q-30.286-68.571-93.429-110.286t-140.286-41.714q-105.714 0-180.857 75.143t-75.143 180.857zM621.714 950.857q105.714 0 180.857-75.143t75.143-180.857q0-96-63.429-168t-157.714-85.143q1.714 16.571 1.714 33.714 0 120-77.143 211.143t-193.143 112.286q30.286 68.571 93.429 110.286t140.286 41.714z"></path>
</symbol>
<symbol id="icon-calendar" viewBox="0 0 1024 1024">
	<title>calendar</title>
	<path class="path1" d="M870.4 153.6h-51.2v102.4h-153.6v-102.4h-307.2v102.4h-153.6v-102.4h-51.2c-56.371 0-102.4 46.080-102.4 102.4v614.4c0 56.32 46.029 102.4 102.4 102.4h716.8c56.32 0 102.4-46.080 102.4-102.4v-614.4c0-56.32-46.080-102.4-102.4-102.4zM870.4 870.4h-716.8v-409.6h716.8v409.6zM332.8 51.2h-102.4v179.2h102.4v-179.2zM793.6 51.2h-102.4v179.2h102.4v-179.2z"></path>
</symbol>
<symbol id="icon-location-pin" viewBox="0 0 1024 1024">
	<title>location-pin</title>
	<path class="path1" d="M512 102.861c-141.414 0-256 114.125-256 255.488 0 244.429 256 563.2 256 563.2s256-318.822 256-563.2c0-141.312-114.586-255.488-256-255.488zM512 499.712c-76.39 0-138.24-61.901-138.24-138.24s61.85-138.24 138.24-138.24c76.288 0 138.189 61.901 138.189 138.24s-61.901 138.24-138.189 138.24z"></path>
</symbol>
<symbol id="icon-suitcase" viewBox="0 0 1024 1024">
	<title>suitcase</title>
	<path class="path1" d="M921.6 204.8h-51.2v768h51.2c56.32 0 102.4-46.080 102.4-102.4v-563.2c0-56.32-46.080-102.4-102.4-102.4zM0 307.2v563.2c0 56.32 46.029 102.4 102.4 102.4h51.2v-768h-51.2c-56.371 0-102.4 46.080-102.4 102.4zM691.2 97.587c-34.867-16.179-96.717-46.387-180.173-46.387-83.61 0-143.36 30.208-178.227 46.387v107.213h-128v768h614.4v-768h-128v-107.213zM614.4 204.8h-204.8v-68.403c27.341-11.776 55.194-23.808 101.427-23.808 46.182 0 76.083 11.981 103.373 23.808v68.403z"></path>
</symbol>
<symbol id="icon-instagram" viewBox="0 0 1024 1024">
	<title>instagram</title>
	<path class="path1" d="M870.4 51.2h-716.8c-56.32 0-102.4 46.080-102.4 102.4v716.8c0 56.371 46.080 102.4 102.4 102.4h716.8c56.32 0 102.4-46.029 102.4-102.4v-716.8c0-56.32-46.080-102.4-102.4-102.4zM511.181 794.778c156.621 0 283.546-127.027 283.546-283.597 0-17.306-2.202-33.997-5.274-50.381h80.947v369.459c0 19.558-15.872 35.328-35.482 35.328h-645.837c-19.61 0-35.482-15.77-35.482-35.328v-369.459h79.309c-3.123 16.384-5.325 33.075-5.325 50.381 0 156.621 127.027 283.597 283.597 283.597zM333.978 511.181c0-97.894 79.36-177.203 177.254-177.203 97.843 0 177.254 79.309 177.254 177.203s-79.411 177.254-177.254 177.254c-97.946 0-177.254-79.36-177.254-177.254zM834.918 307.2h-82.688c-19.558 0-35.43-15.974-35.43-35.43v-82.79c0-19.558 15.872-35.379 35.379-35.379h82.688c19.661 0 35.533 15.821 35.533 35.379v82.739c0 19.507-15.872 35.482-35.482 35.482z"></path>
</symbol>
<symbol id="icon-pinterest" viewBox="0 0 1024 1024">
	<title>pinterest</title>
	<path class="path1" d="M441.19 677.222c-26.931 141.005-59.75 276.173-157.082 346.778-30.003-213.094 44.083-373.094 78.541-542.976-58.726-98.816 7.066-297.574 130.816-248.576 152.32 60.211-131.891 367.206 58.88 405.606 199.219 39.987 280.525-345.6 156.979-470.989-178.432-181.146-519.475-4.25-477.491 255.078 10.189 63.386 75.674 82.586 26.163 170.086-114.227-25.293-148.326-115.405-143.923-235.52 7.066-196.608 176.589-334.182 346.675-353.28 215.091-24.115 416.973 79.002 444.877 281.293 31.386 228.403-97.075 475.802-327.117 457.984-62.362-4.864-88.474-35.789-137.318-65.485z"></path>
</symbol>
<symbol id="icon-tumblr" viewBox="0 0 1024 1024">
	<title>tumblr</title>
	<path class="path1" d="M798.72 931.635c-39.782 18.995-75.776 32.307-107.981 39.987-32.256 7.578-67.123 11.418-104.602 11.418-42.547 0-80.179-5.478-112.896-16.282-32.717-10.906-60.57-26.419-83.712-46.49-23.091-20.224-39.117-41.574-48.026-64.205-8.909-22.682-13.363-55.603-13.363-98.611v-330.496h-102.861v-133.325c36.557-11.981 67.891-29.184 93.952-51.712 26.112-22.426 47.002-49.408 62.822-80.896 15.77-31.386 26.573-71.475 32.563-120.064h132.352v238.182h220.877v147.814h-220.877v241.613c0 54.579 2.867 89.702 8.602 105.216 5.683 15.514 16.333 27.904 31.846 37.12 20.634 12.493 44.186 18.79 70.707 18.79 47.104 0 94.003-15.514 140.595-46.49v148.429z"></path>
</symbol>
<symbol id="icon-vimeo" viewBox="0 0 1024 1024">
	<title>vimeo</title>
	<path class="path1" d="M968.192 299.008c-51.507 295.578-339.2 545.792-425.728 602.982-86.528 57.088-165.53-22.886-194.15-83.507-32.819-68.966-131.021-443.187-156.774-474.163-25.754-31.027-102.912 30.976-102.912 30.976l-37.427-49.971c0 0 156.723-190.72 276.019-214.579 126.464-25.242 126.259 197.837 156.672 321.638 29.389 119.91 49.203 188.416 74.906 188.416s74.854-66.816 128.614-169.216c53.914-102.605-2.304-193.126-107.571-128.717 42.138-257.382 439.859-319.283 388.352-23.859z"></path>
</symbol>
</defs>
</svg>
